<mxfile host="app.diagrams.net" modified="2023-11-16T05:27:55.757Z" agent="Mozilla/5.0 (Macintosh; Intel Mac OS X 10.15; rv:109.0) Gecko/20100101 Firefox/119.0" etag="B5TNAoWDsQRtLdpjZUzf" version="22.1.2" type="device">
  <diagram id="C5RBs43oDa-KdzZeNtuy" name="Page-1">
    <mxGraphModel dx="882" dy="571" grid="1" gridSize="10" guides="1" tooltips="1" connect="1" arrows="1" fold="1" page="1" pageScale="1" pageWidth="827" pageHeight="1169" math="0" shadow="0">
      <root>
        <mxCell id="WIyWlLk6GJQsqaUBKTNV-0" />
        <mxCell id="WIyWlLk6GJQsqaUBKTNV-1" parent="WIyWlLk6GJQsqaUBKTNV-0" />
        <mxCell id="iQwF4n-4ogwD5VfyDvZ2-0" value="VirtualPet" style="swimlane;fontStyle=1;align=center;verticalAlign=top;childLayout=stackLayout;horizontal=1;startSize=26;horizontalStack=0;resizeParent=1;resizeParentMax=0;resizeLast=0;collapsible=1;marginBottom=0;whiteSpace=wrap;html=1;" parent="WIyWlLk6GJQsqaUBKTNV-1" vertex="1">
          <mxGeometry x="20" y="250" width="210" height="390" as="geometry">
            <mxRectangle x="330" y="260" width="80" height="30" as="alternateBounds" />
          </mxGeometry>
        </mxCell>
        <mxCell id="iQwF4n-4ogwD5VfyDvZ2-1" value="&lt;div&gt;- name: String&lt;/div&gt;&lt;div&gt;- moodState: Mood&lt;/div&gt;&lt;div&gt;- healthState: Health&lt;br&gt;&lt;/div&gt;&lt;div&gt;- lifeStageStrategy: PetLifeStage&lt;/div&gt;&lt;div&gt;- needsLevels: Map&amp;lt;Need, int&amp;gt;&lt;br&gt;&lt;/div&gt;&lt;div&gt;- timer: Timer&lt;/div&gt;&lt;div&gt;- startTime: long&lt;br&gt;&lt;/div&gt;&lt;div&gt;&lt;br&gt;&lt;/div&gt;" style="text;strokeColor=none;fillColor=none;align=left;verticalAlign=top;spacingLeft=4;spacingRight=4;overflow=hidden;rotatable=0;points=[[0,0.5],[1,0.5]];portConstraint=eastwest;whiteSpace=wrap;html=1;" parent="iQwF4n-4ogwD5VfyDvZ2-0" vertex="1">
          <mxGeometry y="26" width="210" height="114" as="geometry" />
        </mxCell>
        <mxCell id="iQwF4n-4ogwD5VfyDvZ2-2" value="" style="line;strokeWidth=1;fillColor=none;align=left;verticalAlign=middle;spacingTop=-1;spacingLeft=3;spacingRight=3;rotatable=0;labelPosition=right;points=[];portConstraint=eastwest;strokeColor=inherit;" parent="iQwF4n-4ogwD5VfyDvZ2-0" vertex="1">
          <mxGeometry y="140" width="210" height="8" as="geometry" />
        </mxCell>
        <mxCell id="iQwF4n-4ogwD5VfyDvZ2-3" value="&lt;div&gt;+ feed(): void&lt;br&gt;&lt;/div&gt;&lt;div&gt;+ play(): void&lt;br&gt;&lt;/div&gt;&lt;div&gt;+ clean(): void&lt;br&gt;&lt;/div&gt;&lt;div&gt;+ bedtime(): void&lt;/div&gt;&lt;div&gt;+ getName(): String&lt;br&gt;&lt;/div&gt;&lt;div&gt;&lt;div&gt;+ getMoodState: Mood&lt;/div&gt;+ getHealthState: Health&lt;/div&gt;&lt;div&gt;+ getLifeStage(): PetLifeStage&lt;/div&gt;&lt;div&gt;+ getNeedLevels(): Map&amp;lt;Need, int&amp;gt;&lt;/div&gt;&lt;div&gt;- initializeTimer(): void&lt;br&gt;&lt;/div&gt;&lt;div&gt;- decreaseNeedLevels(): void&lt;/div&gt;&lt;div&gt;- checkNeedLevels(): void&lt;br&gt;&lt;/div&gt;&lt;div&gt;- updateMood(Mood): void&lt;/div&gt;&lt;div&gt;- updateHealth(Health): void&lt;/div&gt;&lt;div&gt;- updateLifeStage(): void&lt;/div&gt;&lt;div&gt;- getElapsedTime(): long&lt;/div&gt;&lt;div&gt;&lt;br&gt;&lt;/div&gt;" style="text;strokeColor=none;fillColor=none;align=left;verticalAlign=top;spacingLeft=4;spacingRight=4;overflow=hidden;rotatable=0;points=[[0,0.5],[1,0.5]];portConstraint=eastwest;whiteSpace=wrap;html=1;" parent="iQwF4n-4ogwD5VfyDvZ2-0" vertex="1">
          <mxGeometry y="148" width="210" height="242" as="geometry" />
        </mxCell>
        <mxCell id="iQwF4n-4ogwD5VfyDvZ2-4" value="&lt;div&gt;&lt;div&gt;&lt;i style=&quot;font-weight: normal;&quot;&gt;&amp;lt;&amp;lt;enumeration&amp;gt;&amp;gt;&lt;/i&gt;&lt;/div&gt;&lt;/div&gt;&lt;div&gt;&lt;b&gt;Mood&lt;/b&gt;&lt;/div&gt;" style="swimlane;fontStyle=0;childLayout=stackLayout;horizontal=1;startSize=42;fillColor=none;horizontalStack=0;resizeParent=1;resizeParentMax=0;resizeLast=0;collapsible=1;marginBottom=0;whiteSpace=wrap;html=1;" parent="WIyWlLk6GJQsqaUBKTNV-1" vertex="1">
          <mxGeometry x="320" y="220" width="140" height="130" as="geometry" />
        </mxCell>
        <mxCell id="iQwF4n-4ogwD5VfyDvZ2-5" value="&lt;div&gt;Happy&lt;/div&gt;&lt;div&gt;Hungry&lt;/div&gt;&lt;div&gt;Bored&lt;/div&gt;&lt;div&gt;Dirty&lt;/div&gt;&lt;div&gt;Sleepy&lt;br&gt;&lt;/div&gt;" style="text;strokeColor=none;fillColor=none;align=left;verticalAlign=top;spacingLeft=4;spacingRight=4;overflow=hidden;rotatable=0;points=[[0,0.5],[1,0.5]];portConstraint=eastwest;whiteSpace=wrap;html=1;" parent="iQwF4n-4ogwD5VfyDvZ2-4" vertex="1">
          <mxGeometry y="42" width="140" height="88" as="geometry" />
        </mxCell>
        <mxCell id="iQwF4n-4ogwD5VfyDvZ2-9" value="&lt;div&gt;&lt;i style=&quot;font-weight: normal;&quot;&gt;&amp;lt;&amp;lt;interface&amp;gt;&amp;gt;&lt;/i&gt;&lt;/div&gt;&lt;div&gt;PetLifeStage&lt;/div&gt;" style="swimlane;fontStyle=1;align=center;verticalAlign=top;childLayout=stackLayout;horizontal=1;startSize=40;horizontalStack=0;resizeParent=1;resizeParentMax=0;resizeLast=0;collapsible=1;marginBottom=0;whiteSpace=wrap;html=1;swimlaneLine=1;perimeterSpacing=0;" parent="WIyWlLk6GJQsqaUBKTNV-1" vertex="1">
          <mxGeometry x="350" y="405" width="260" height="80" as="geometry">
            <mxRectangle x="330" y="260" width="80" height="30" as="alternateBounds" />
          </mxGeometry>
        </mxCell>
        <mxCell id="iQwF4n-4ogwD5VfyDvZ2-12" value="&lt;div&gt;+ increaseNeed(Map&amp;lt;Need, int&amp;gt;, Need): void&lt;/div&gt;&lt;div&gt;+ decreaseNeed(Map&amp;lt;Need, int&amp;gt;, Need): void&lt;/div&gt;" style="text;strokeColor=none;fillColor=none;align=left;verticalAlign=top;spacingLeft=4;spacingRight=4;overflow=hidden;rotatable=0;points=[[0,0.5],[1,0.5]];portConstraint=eastwest;whiteSpace=wrap;html=1;" parent="iQwF4n-4ogwD5VfyDvZ2-9" vertex="1">
          <mxGeometry y="40" width="260" height="40" as="geometry" />
        </mxCell>
        <mxCell id="iQwF4n-4ogwD5VfyDvZ2-35" value="&lt;div&gt;&lt;div&gt;&lt;i style=&quot;font-weight: normal;&quot;&gt;&amp;lt;&amp;lt;enumeration&amp;gt;&amp;gt;&lt;/i&gt;&lt;/div&gt;&lt;/div&gt;&lt;div&gt;&lt;b&gt;Health&lt;/b&gt;&lt;/div&gt;" style="swimlane;fontStyle=0;childLayout=stackLayout;horizontal=1;startSize=39;fillColor=none;horizontalStack=0;resizeParent=1;resizeParentMax=0;resizeLast=0;collapsible=1;marginBottom=0;whiteSpace=wrap;html=1;" parent="WIyWlLk6GJQsqaUBKTNV-1" vertex="1">
          <mxGeometry x="490" y="220" width="140" height="93" as="geometry" />
        </mxCell>
        <mxCell id="iQwF4n-4ogwD5VfyDvZ2-36" value="&lt;div&gt;Healthy&lt;/div&gt;&lt;div&gt;Sick&lt;/div&gt;&lt;div&gt;Dead&lt;br&gt;&lt;/div&gt;" style="text;strokeColor=none;fillColor=none;align=left;verticalAlign=top;spacingLeft=4;spacingRight=4;overflow=hidden;rotatable=0;points=[[0,0.5],[1,0.5]];portConstraint=eastwest;whiteSpace=wrap;html=1;" parent="iQwF4n-4ogwD5VfyDvZ2-35" vertex="1">
          <mxGeometry y="39" width="140" height="54" as="geometry" />
        </mxCell>
        <mxCell id="iQwF4n-4ogwD5VfyDvZ2-54" value="&lt;div&gt;&lt;div&gt;&lt;i style=&quot;font-weight: normal;&quot;&gt;&amp;lt;&amp;lt;enumeration&amp;gt;&amp;gt;&lt;/i&gt;&lt;/div&gt;&lt;/div&gt;&lt;div&gt;&lt;b&gt;Need&lt;/b&gt;&lt;/div&gt;" style="swimlane;fontStyle=0;childLayout=stackLayout;horizontal=1;startSize=40;fillColor=none;horizontalStack=0;resizeParent=1;resizeParentMax=0;resizeLast=0;collapsible=1;marginBottom=0;whiteSpace=wrap;html=1;" parent="WIyWlLk6GJQsqaUBKTNV-1" vertex="1">
          <mxGeometry x="660" y="220" width="140" height="110" as="geometry" />
        </mxCell>
        <mxCell id="iQwF4n-4ogwD5VfyDvZ2-55" value="&lt;div&gt;Hunger&lt;/div&gt;&lt;div&gt;Social&lt;/div&gt;&lt;div&gt;Hygiene&lt;/div&gt;&lt;div&gt;Energy&lt;br&gt;&lt;/div&gt;" style="text;strokeColor=none;fillColor=none;align=left;verticalAlign=top;spacingLeft=4;spacingRight=4;overflow=hidden;rotatable=0;points=[[0,0.5],[1,0.5]];portConstraint=eastwest;whiteSpace=wrap;html=1;" parent="iQwF4n-4ogwD5VfyDvZ2-54" vertex="1">
          <mxGeometry y="40" width="140" height="70" as="geometry" />
        </mxCell>
        <mxCell id="iQwF4n-4ogwD5VfyDvZ2-60" value="Puppy" style="swimlane;fontStyle=1;align=center;verticalAlign=top;childLayout=stackLayout;horizontal=1;startSize=26;horizontalStack=0;resizeParent=1;resizeParentMax=0;resizeLast=0;collapsible=1;marginBottom=0;whiteSpace=wrap;html=1;" parent="WIyWlLk6GJQsqaUBKTNV-1" vertex="1">
          <mxGeometry x="552" y="520" width="260" height="120" as="geometry" />
        </mxCell>
        <mxCell id="iQwF4n-4ogwD5VfyDvZ2-61" value="&lt;div&gt;- needIncreaseRates: Map&amp;lt;Need, int&amp;gt;&lt;/div&gt;&lt;div&gt;- needDecreaseRates: Map&amp;lt;Need, int&amp;gt;&lt;br&gt; &lt;/div&gt;" style="text;strokeColor=none;fillColor=none;align=left;verticalAlign=top;spacingLeft=4;spacingRight=4;overflow=hidden;rotatable=0;points=[[0,0.5],[1,0.5]];portConstraint=eastwest;whiteSpace=wrap;html=1;" parent="iQwF4n-4ogwD5VfyDvZ2-60" vertex="1">
          <mxGeometry y="26" width="260" height="44" as="geometry" />
        </mxCell>
        <mxCell id="iQwF4n-4ogwD5VfyDvZ2-62" value="" style="line;strokeWidth=1;fillColor=none;align=left;verticalAlign=middle;spacingTop=-1;spacingLeft=3;spacingRight=3;rotatable=0;labelPosition=right;points=[];portConstraint=eastwest;strokeColor=inherit;" parent="iQwF4n-4ogwD5VfyDvZ2-60" vertex="1">
          <mxGeometry y="70" width="260" height="8" as="geometry" />
        </mxCell>
        <mxCell id="iQwF4n-4ogwD5VfyDvZ2-63" value="&lt;div&gt;+ increaseNeed(Map&amp;lt;Need, int&amp;gt;, Need): void&lt;/div&gt;&lt;div&gt;+ decreaseNeed(Map&amp;lt;Need, int&amp;gt;, Need): void&lt;/div&gt;" style="text;strokeColor=none;fillColor=none;align=left;verticalAlign=top;spacingLeft=4;spacingRight=4;overflow=hidden;rotatable=0;points=[[0,0.5],[1,0.5]];portConstraint=eastwest;whiteSpace=wrap;html=1;" parent="iQwF4n-4ogwD5VfyDvZ2-60" vertex="1">
          <mxGeometry y="78" width="260" height="42" as="geometry" />
        </mxCell>
        <mxCell id="iQwF4n-4ogwD5VfyDvZ2-64" value="Adult" style="swimlane;fontStyle=1;align=center;verticalAlign=top;childLayout=stackLayout;horizontal=1;startSize=26;horizontalStack=0;resizeParent=1;resizeParentMax=0;resizeLast=0;collapsible=1;marginBottom=0;whiteSpace=wrap;html=1;" parent="WIyWlLk6GJQsqaUBKTNV-1" vertex="1">
          <mxGeometry x="552" y="660" width="260" height="120" as="geometry" />
        </mxCell>
        <mxCell id="iQwF4n-4ogwD5VfyDvZ2-65" value="&lt;div&gt;- needIncreaseRates: Map&amp;lt;Need, int&amp;gt;&lt;/div&gt;&lt;div&gt;- needDecreaseRates: Map&amp;lt;Need, int&amp;gt;&lt;br&gt; &lt;/div&gt;" style="text;strokeColor=none;fillColor=none;align=left;verticalAlign=top;spacingLeft=4;spacingRight=4;overflow=hidden;rotatable=0;points=[[0,0.5],[1,0.5]];portConstraint=eastwest;whiteSpace=wrap;html=1;" parent="iQwF4n-4ogwD5VfyDvZ2-64" vertex="1">
          <mxGeometry y="26" width="260" height="44" as="geometry" />
        </mxCell>
        <mxCell id="iQwF4n-4ogwD5VfyDvZ2-66" value="" style="line;strokeWidth=1;fillColor=none;align=left;verticalAlign=middle;spacingTop=-1;spacingLeft=3;spacingRight=3;rotatable=0;labelPosition=right;points=[];portConstraint=eastwest;strokeColor=inherit;" parent="iQwF4n-4ogwD5VfyDvZ2-64" vertex="1">
          <mxGeometry y="70" width="260" height="8" as="geometry" />
        </mxCell>
        <mxCell id="iQwF4n-4ogwD5VfyDvZ2-67" value="&lt;div&gt;+ increaseNeed(Map&amp;lt;Need, int&amp;gt;, Need): void&lt;/div&gt;&lt;div&gt;+ decreaseNeed(Map&amp;lt;Need, int&amp;gt;, Need): void&lt;/div&gt;" style="text;strokeColor=none;fillColor=none;align=left;verticalAlign=top;spacingLeft=4;spacingRight=4;overflow=hidden;rotatable=0;points=[[0,0.5],[1,0.5]];portConstraint=eastwest;whiteSpace=wrap;html=1;" parent="iQwF4n-4ogwD5VfyDvZ2-64" vertex="1">
          <mxGeometry y="78" width="260" height="42" as="geometry" />
        </mxCell>
        <mxCell id="iQwF4n-4ogwD5VfyDvZ2-68" value="Senior" style="swimlane;fontStyle=1;align=center;verticalAlign=top;childLayout=stackLayout;horizontal=1;startSize=26;horizontalStack=0;resizeParent=1;resizeParentMax=0;resizeLast=0;collapsible=1;marginBottom=0;whiteSpace=wrap;html=1;" parent="WIyWlLk6GJQsqaUBKTNV-1" vertex="1">
          <mxGeometry x="552" y="800" width="260" height="120" as="geometry" />
        </mxCell>
        <mxCell id="iQwF4n-4ogwD5VfyDvZ2-69" value="&lt;div&gt;- needIncreaseRates: Map&amp;lt;Need, int&amp;gt;&lt;/div&gt;&lt;div&gt;- needDecreaseRates: Map&amp;lt;Need, int&amp;gt;&lt;br&gt; &lt;/div&gt;" style="text;strokeColor=none;fillColor=none;align=left;verticalAlign=top;spacingLeft=4;spacingRight=4;overflow=hidden;rotatable=0;points=[[0,0.5],[1,0.5]];portConstraint=eastwest;whiteSpace=wrap;html=1;" parent="iQwF4n-4ogwD5VfyDvZ2-68" vertex="1">
          <mxGeometry y="26" width="260" height="44" as="geometry" />
        </mxCell>
        <mxCell id="iQwF4n-4ogwD5VfyDvZ2-70" value="" style="line;strokeWidth=1;fillColor=none;align=left;verticalAlign=middle;spacingTop=-1;spacingLeft=3;spacingRight=3;rotatable=0;labelPosition=right;points=[];portConstraint=eastwest;strokeColor=inherit;" parent="iQwF4n-4ogwD5VfyDvZ2-68" vertex="1">
          <mxGeometry y="70" width="260" height="8" as="geometry" />
        </mxCell>
        <mxCell id="iQwF4n-4ogwD5VfyDvZ2-71" value="&lt;div&gt;+ increaseNeed(Map&amp;lt;Need, int&amp;gt;, Need): void&lt;/div&gt;&lt;div&gt;+ decreaseNeed(Map&amp;lt;Need, int&amp;gt;, Need): void&lt;/div&gt;" style="text;strokeColor=none;fillColor=none;align=left;verticalAlign=top;spacingLeft=4;spacingRight=4;overflow=hidden;rotatable=0;points=[[0,0.5],[1,0.5]];portConstraint=eastwest;whiteSpace=wrap;html=1;" parent="iQwF4n-4ogwD5VfyDvZ2-68" vertex="1">
          <mxGeometry y="78" width="260" height="42" as="geometry" />
        </mxCell>
        <mxCell id="iQwF4n-4ogwD5VfyDvZ2-85" value="&lt;h1&gt;Virtual Pet Model Class Diagrams&lt;br&gt;&lt;/h1&gt;&lt;p&gt;Nina Lui -- CS5004 Project Spring 2023&amp;nbsp;&lt;/p&gt;&lt;p&gt;Class diagrams for the model for a virtual virtualpet.&lt;/p&gt;&lt;p&gt;The virtual virtualpet exhibits different needs based on its life stage where upon user interaction, the needs increase at different rates, and over time, the needs decrease at different rates. The mood and health of a virtualpet is monitored, where the mood changes whenever any of its needs gets too low, and the health deteriorates if needs reach low levels, where the virtualpet becomes sick and ultimately dies if its needs reach 0. As time progresses and needs are being met, the virtual virtualpet grows into new life stages. &lt;br&gt;&lt;/p&gt;" style="text;html=1;strokeColor=none;fillColor=none;spacing=5;spacingTop=-20;whiteSpace=wrap;overflow=hidden;rounded=0;" parent="WIyWlLk6GJQsqaUBKTNV-1" vertex="1">
          <mxGeometry x="10" y="10" width="810" height="180" as="geometry" />
        </mxCell>
        <mxCell id="7U098MU7J4uwIcxkJLnc-0" value="1" style="endArrow=open;html=1;endSize=10;startArrow=diamondThin;startSize=12;startFill=1;edgeStyle=orthogonalEdgeStyle;align=left;verticalAlign=bottom;rounded=0;exitX=1.003;exitY=0.208;exitDx=0;exitDy=0;entryX=-0.001;entryY=0.086;entryDx=0;entryDy=0;entryPerimeter=0;exitPerimeter=0;" edge="1" parent="WIyWlLk6GJQsqaUBKTNV-1" source="iQwF4n-4ogwD5VfyDvZ2-3" target="iQwF4n-4ogwD5VfyDvZ2-12">
          <mxGeometry x="-0.8429" relative="1" as="geometry">
            <mxPoint x="370" y="510" as="sourcePoint" />
            <mxPoint x="530" y="510" as="targetPoint" />
            <mxPoint as="offset" />
          </mxGeometry>
        </mxCell>
        <mxCell id="7U098MU7J4uwIcxkJLnc-1" value="1" style="edgeLabel;html=1;align=center;verticalAlign=middle;resizable=0;points=[];" vertex="1" connectable="0" parent="7U098MU7J4uwIcxkJLnc-0">
          <mxGeometry x="0.6643" relative="1" as="geometry">
            <mxPoint x="3" y="-11" as="offset" />
          </mxGeometry>
        </mxCell>
        <mxCell id="7U098MU7J4uwIcxkJLnc-2" value="&lt;font style=&quot;font-size: 9px;&quot;&gt;lifeStageStrategy&lt;/font&gt;" style="text;html=1;align=center;verticalAlign=middle;resizable=0;points=[];autosize=1;strokeColor=none;fillColor=none;" vertex="1" parent="WIyWlLk6GJQsqaUBKTNV-1">
          <mxGeometry x="244" y="420" width="90" height="30" as="geometry" />
        </mxCell>
        <mxCell id="7U098MU7J4uwIcxkJLnc-6" style="edgeStyle=orthogonalEdgeStyle;rounded=0;orthogonalLoop=1;jettySize=auto;html=1;endArrow=block;endFill=0;dashed=1;endSize=10;entryX=0.501;entryY=1.006;entryDx=0;entryDy=0;entryPerimeter=0;" edge="1" parent="WIyWlLk6GJQsqaUBKTNV-1" source="7U098MU7J4uwIcxkJLnc-10" target="iQwF4n-4ogwD5VfyDvZ2-12">
          <mxGeometry relative="1" as="geometry">
            <mxPoint x="472.2199999999998" y="486.1199999999999" as="targetPoint" />
            <Array as="points">
              <mxPoint x="480" y="585" />
              <mxPoint x="480" y="510" />
            </Array>
          </mxGeometry>
        </mxCell>
        <mxCell id="7U098MU7J4uwIcxkJLnc-7" value="" style="edgeStyle=orthogonalEdgeStyle;rounded=0;orthogonalLoop=1;jettySize=auto;html=1;endArrow=none;endFill=0;dashed=1;endSize=10;entryDx=0;entryDy=0;" edge="1" parent="WIyWlLk6GJQsqaUBKTNV-1" source="iQwF4n-4ogwD5VfyDvZ2-68" target="7U098MU7J4uwIcxkJLnc-8">
          <mxGeometry relative="1" as="geometry">
            <mxPoint x="552" y="860" as="sourcePoint" />
            <mxPoint x="477" y="485" as="targetPoint" />
            <Array as="points">
              <mxPoint x="480" y="860" />
              <mxPoint x="480" y="730" />
            </Array>
          </mxGeometry>
        </mxCell>
        <mxCell id="7U098MU7J4uwIcxkJLnc-11" value="" style="edgeStyle=orthogonalEdgeStyle;rounded=0;orthogonalLoop=1;jettySize=auto;html=1;dashed=1;endArrow=none;endFill=0;endSize=0;" edge="1" parent="WIyWlLk6GJQsqaUBKTNV-1" source="7U098MU7J4uwIcxkJLnc-8">
          <mxGeometry relative="1" as="geometry">
            <mxPoint x="552" y="720" as="targetPoint" />
            <Array as="points">
              <mxPoint x="480" y="720" />
            </Array>
          </mxGeometry>
        </mxCell>
        <mxCell id="7U098MU7J4uwIcxkJLnc-8" value="" style="shape=waypoint;sketch=0;fillStyle=solid;size=6;pointerEvents=1;points=[];fillColor=none;resizable=0;rotatable=0;perimeter=centerPerimeter;snapToPoint=1;opacity=0;" vertex="1" parent="WIyWlLk6GJQsqaUBKTNV-1">
          <mxGeometry x="470" y="710" width="20" height="20" as="geometry" />
        </mxCell>
        <mxCell id="7U098MU7J4uwIcxkJLnc-9" value="" style="edgeStyle=orthogonalEdgeStyle;rounded=0;orthogonalLoop=1;jettySize=auto;html=1;endArrow=none;endFill=0;dashed=1;endSize=10;entryX=-0.002;entryY=0.77;entryDx=0;entryDy=0;entryPerimeter=0;" edge="1" parent="WIyWlLk6GJQsqaUBKTNV-1" source="7U098MU7J4uwIcxkJLnc-10" target="iQwF4n-4ogwD5VfyDvZ2-61">
          <mxGeometry relative="1" as="geometry">
            <mxPoint x="472" y="730" as="sourcePoint" />
            <mxPoint x="532" y="570" as="targetPoint" />
            <Array as="points">
              <mxPoint x="480" y="580" />
              <mxPoint x="490" y="580" />
            </Array>
          </mxGeometry>
        </mxCell>
        <mxCell id="7U098MU7J4uwIcxkJLnc-12" value="" style="edgeStyle=orthogonalEdgeStyle;rounded=0;orthogonalLoop=1;jettySize=auto;html=1;endArrow=none;endFill=0;dashed=1;endSize=10;" edge="1" parent="WIyWlLk6GJQsqaUBKTNV-1" source="7U098MU7J4uwIcxkJLnc-8" target="7U098MU7J4uwIcxkJLnc-10">
          <mxGeometry relative="1" as="geometry">
            <mxPoint x="472" y="730" as="sourcePoint" />
            <mxPoint x="472" y="620" as="targetPoint" />
            <Array as="points">
              <mxPoint x="480" y="730" />
              <mxPoint x="480" y="585" />
            </Array>
          </mxGeometry>
        </mxCell>
        <mxCell id="7U098MU7J4uwIcxkJLnc-10" value="" style="shape=waypoint;sketch=0;fillStyle=solid;size=6;pointerEvents=1;points=[];fillColor=none;resizable=0;rotatable=0;perimeter=centerPerimeter;snapToPoint=1;opacity=0;" vertex="1" parent="WIyWlLk6GJQsqaUBKTNV-1">
          <mxGeometry x="470" y="570" width="20" height="20" as="geometry" />
        </mxCell>
      </root>
    </mxGraphModel>
  </diagram>
</mxfile>
